<svg xmlns="http://www.w3.org/2000/svg" version="1.1" width="498" height="498"><title>'goose-pfp-339048' by Dmitri Cherniak</title><desc>seed=339048
backgroundColor=#ffffff
padding=0
innerPadding=0
timeout=100
dimension=1
border=false
Save=function(){return n.handleSave()}
frame=222

Rendered at Tue Oct 31 2023 21:37:44 GMT+0100 (Ora standard dell’Europa centrale)
Generated in &lt;1ms
</desc><defs></defs><rect width="100%" height="100%" fill="#ffffff"></rect><g><g id="0-0"><rect x="0" y="0" height="498" width="498" fill="#6BDCC5"></rect><g><rect id="0-0-3-2-4-7" x="149.39999999999998" y="99.6" width="199.2" height="348.59999999999997" fill="#834FC4"></rect><rect id="0-0-2-3-6-5" x="99.6" y="149.39999999999998" width="298.79999999999995" height="249" fill="#834FC4"></rect><rect id="0-0-4-8-2-2" x="199.2" y="398.4" width="99.6" height="99.6" fill="#834FC4"></rect><rect id="0-0-1-7-8-1" x="49.8" y="348.59999999999997" width="398.4" height="49.8" fill="#F0943E"></rect><rect id="0-0-3-6-4-3" x="149.39999999999998" y="298.79999999999995" width="199.2" height="149.39999999999998" fill="#F0943E"></rect><rect id="0-0-4-7-2-1" x="199.2" y="348.59999999999997" width="99.6" height="49.8" fill="#F4B6AD"></rect><rect id="0-0-1-6-1-2" x="49.8" y="298.79999999999995" width="49.8" height="99.6" fill="#F0943E"></rect><rect id="0-0-8-6-1-2" x="398.4" y="298.79999999999995" width="49.8" height="99.6" fill="#F0943E"></rect><rect id="0-0-3-4-1-1" x="149.39999999999998" y="199.2" width="49.8" height="49.8" fill="#D12D35"></rect><rect id="0-0-6-4-1-1" x="298.79999999999995" y="199.2" width="49.8" height="49.8" fill="#D12D35"></rect><rect id="0-0-3-5-1-1" x="149.39999999999998" y="249" width="49.8" height="49.8" fill="#000000"></rect><rect id="0-0-6-5-1-1" x="298.79999999999995" y="249" width="49.8" height="49.8" fill="#000000"></rect></g><rect x="0" y="0" stroke="white" stroke-width="0" height="498" width="498" fill="none"></rect></g></g></svg>