<svg xmlns="http://www.w3.org/2000/svg" version="1.1" width="708" height="708"><title>'goose-pfp-823073' by Dmitri Cherniak</title><desc>seed=823073
backgroundColor=#ffffff
padding=0
innerPadding=0
timeout=1
dimension=1
border=false
Save=function(){return n.handleSave()}
frame=176

Rendered at Tue Oct 31 2023 21:42:49 GMT+0100 (Ora standard dell’Europa centrale)
Generated in 1ms
</desc><defs></defs><rect width="100%" height="100%" fill="#ffffff"></rect><g><g id="0-0"><rect x="0" y="0" height="708" width="708" fill="#00AFD7"></rect><g><rect id="0-0-0-0-5-1" x="0" y="0" width="354" height="70.8" fill="#F0943E"></rect><rect id="0-0-0-0-1-5" x="0" y="0" width="70.8" height="354" fill="#F0943E"></rect><rect id="0-0-2-0-1-5" x="141.6" y="0" width="70.8" height="354" fill="#F0943E"></rect><rect id="0-0-4-0-1-5" x="283.2" y="0" width="70.8" height="354" fill="#F0943E"></rect><rect id="0-0-6-1-3-3" x="424.79999999999995" y="70.8" width="212.39999999999998" height="212.39999999999998" fill="#F0943E"></rect><rect id="0-0-1-6-1-4" x="70.8" y="424.79999999999995" width="70.8" height="283.2" fill="#F0943E"></rect><rect id="0-0-3-6-1-4" x="212.39999999999998" y="424.79999999999995" width="70.8" height="283.2" fill="#F0943E"></rect><rect id="0-0-5-5-5-1" x="354" y="354" width="354" height="70.8" fill="#F0943E"></rect><rect id="0-0-5-8-5-1" x="354" y="566.4" width="354" height="70.8" fill="#F0943E"></rect><rect id="0-0-5-5-1-5" x="354" y="354" width="70.8" height="354" fill="#F0943E"></rect><rect id="0-0-9-5-1-5" x="637.1999999999999" y="354" width="70.8" height="354" fill="#F0943E"></rect></g><g><rect id="0-0-3-2-4-7" x="212.39999999999998" y="141.6" width="283.2" height="495.59999999999997" fill="#6BDCC5"></rect><rect id="0-0-2-3-6-5" x="141.6" y="212.39999999999998" width="424.79999999999995" height="354" fill="#6BDCC5"></rect><rect id="0-0-4-8-2-2" x="283.2" y="566.4" width="141.6" height="141.6" fill="#6BDCC5"></rect><rect id="0-0-1-7-8-1" x="70.8" y="495.59999999999997" width="566.4" height="70.8" fill="#834FC4"></rect><rect id="0-0-3-6-4-2" x="212.39999999999998" y="424.79999999999995" width="283.2" height="141.6" fill="#834FC4"></rect><rect id="0-0-3-4-1-1" x="212.39999999999998" y="283.2" width="70.8" height="70.8" fill="#000000"></rect><rect id="0-0-6-4-1-1" x="424.79999999999995" y="283.2" width="70.8" height="70.8" fill="#000000"></rect><rect id="0-0-4-1-2-2" x="283.2" y="70.8" width="141.6" height="141.6" fill="#6BDCC5"></rect></g><rect x="0" y="0" stroke="white" stroke-width="0" height="708" width="708" fill="none"></rect></g></g></svg>